#!OML:ASF Y:\EmotionMaleHayes\Project 1\Capture day 1\Session 1\Male1.ASF
:FULLY-SPECIFIED
:DEGREES
864
root 48.2092 17.1724 -1.49186 1185.5 86.5296 1186.36
lowerback 3.63815 1.65552 -6.85833
upperback 1.20299 1.9849 -0.706175
thorax -1.00367 1.00751 3.02209
lowerneck -22.0324 1.048 2.22335
upperneck 21.5809 1.01703 -0.808909
head 10.594 0.589922 -0.495071
rclavicle -1.44367e-014 2.18663e-015
rhumerus -34.4418 7.06204 -90.2427
rradius 29.3839
rwrist 6.47555
rhand -9.27739 -30.7106
rfingers 7.12502
rthumb 16.6794 -60.014
lclavicle -1.44367e-014 2.18663e-015
lhumerus -29.7763 -11.694 94.2051
lradius 23.8121
lwrist -14.066
lhand -14.8742 -27.1881
lfingers 7.12502
lthumb 11.2861 2.48824
rfemur 6.88147 -3.27113 11.2554
rtibia 4.65035
rfoot -13.432 1.9304
rtoes 5.532
lfemur 11.2633 -0.864945 -21.3169
ltibia -0.660568
lfoot -12.331 9.59158
ltoes -3.44578
865
root 48.2145 17.1715 -1.50405 1187.27 86.5107 1188.15
lowerback 3.60249 1.60457 -6.65669
upperback 1.22018 1.92772 -0.739152
thorax -0.952706 0.977042 2.87985
lowerneck -22.062 1.06032 2.23824
upperneck 21.603 1.02943 -0.812115
head 10.6079 0.596487 -0.496696
rclavicle 1.58034e-014 -2.98177e-014
rhumerus -34.3736 6.80214 -90.0619
rradius 29.4965
rwrist 6.69892
rhand -9.00466 -30.9092
rfingers 7.12502
rthumb 16.942 -60.1903
lclavicle 1.58034e-014 -2.98177e-014
lhumerus -29.7866 -11.7419 94.2242
lradius 23.8127
lwrist -14.1015
lhand -14.8538 -27.2161
lfingers 7.12502
lthumb 11.3058 2.45918
rfemur 6.91768 -4.08147 11.0067
rtibia 4.79268
rfoot -13.4039 2.64424
rtoes 5.21592
lfemur 11.3333 -0.824599 -21.4282
ltibia -0.690442
lfoot -12.3443 9.47269
ltoes -3.74162
866
root 48.2158 17.1728 -1.49917 1185.95 86.3854 1186.83
lowerback 3.60159 1.63021 -6.85336
upperback 1.22129 1.95583 -0.770384
thorax -0.958815 0.99171 2.9559
lowerneck -21.9943 1.03368 2.18258
upperneck 21.541 0.998533 -0.760118
head 10.5716 0.583999 -0.473742
rclavicle -4.5969e-016 -2.64384e-014
rhumerus -34.3202 6.56036 -89.8964
rradius 29.6446
rwrist 6.78826
rhand -8.74831 -31.1329
rfingers 7.12502
rthumb 17.1887 -60.3926
lclavicle -4.5969e-016 -2.64384e-014
lhumerus -29.8293 -11.7544 94.2262
lradius 23.8206
lwrist -14.2218
lhand -14.8397 -27.2778
lfingers 7.12502
lthumb 11.3194 2.39671
rfemur 6.90478 -3.77036 10.9252
rtibia 4.78082
rfoot -13.5453 2.36023
rtoes 4.95256
lfemur 11.3297 -0.856173 -21.5616
ltibia -0.680286
lfoot -12.4527 9.52518
ltoes -2.88709
867
root 48.2089 17.173 -1.48816 1185.48 86.591 1186.4
lowerback 3.7484 1.66546 -6.78525
upperback 1.1918 1.99097 -0.699982
thorax -1.07552 1.0129 2.98401
lowerneck -21.8806 1.00142 2.12678
upperneck 21.473 0.957705 -0.693581
head 10.5243 0.569082 -0.447178
rclavicle -4.63417e-015 -3.4191e-014
rhumerus -34.2876 6.41235 -89.8006
rradius 29.7233
rwrist 6.78364
rhand -8.74968 -31.1967
rfingers 7.12502
rthumb 17.1874 -60.4566
lclavicle -4.63417e-015 -3.4191e-014
lhumerus -29.874 -11.7959 94.2329
lradius 23.8046
lwrist -14.229
lhand -14.8669 -27.2589
lfingers 7.12502
lthumb 11.2932 2.41712
rfemur 6.88426 -3.0487 11.4095
rtibia 4.71425
rfoot -13.578 1.69847
rtoes 5.26381
lfemur 11.3066 -0.887921 -21.204
ltibia -0.632083
lfoot -12.4449 9.58983
ltoes -2.67422
868
root 48.2115 17.1745 -1.48705 1184.79 86.5045 1185.66
lowerback 3.67093 1.66518 -6.90204
upperback 1.19265 1.99308 -0.719582
thorax -1.03448 1.01292 3.03106
lowerneck -21.871 0.988278 2.12633
upperneck 21.4695 0.943394 -0.707655
head 10.5211 0.560735 -0.454369
rclavicle -1.77788e-014 1.86858e-014
rhumerus -34.21 6.3212 -89.7221
rradius 29.7601
rwrist 6.62283
rhand -8.90513 -31.2381
rfingers 7.12502
rthumb 17.0378 -60.5109
lclavicle -1.77788e-014 1.86858e-014
lhumerus -29.88 -11.8553 94.2561
lradius 23.8125
lwrist -14.156
lhand -14.868 -27.2648
lfingers 7.12502
lthumb 11.2921 2.41128
rfemur 6.83233 -3.01756 11.3039
rtibia 4.74136
rfoot -13.5124 1.68337
rtoes 5.36651
lfemur 11.2671 -0.829668 -21.294
ltibia -0.629285
lfoot -12.3483 9.57122
ltoes -3.64612
869
root 48.2153 17.1757 -1.49343 1184.23 86.1722 1185.04
lowerback 3.55825 1.64129 -7.15331
upperback 1.20743 1.96412 -0.823142
thorax -0.957146 0.996782 3.06922
lowerneck -21.9306 0.961279 2.16132
upperneck 21.494 0.909332 -0.774382
head 10.541 0.539466 -0.489204
rclavicle -6.98231e-015 3.37934e-014
rhumerus -34.1213 6.17961 -89.616
rradius 29.8095
rwrist 6.51077
rhand -9.07267 -31.2785
rfingers 7.12502
rthumb 16.8765 -60.5652
lclavicle -6.98231e-015 3.37934e-014
lhumerus -29.857 -11.839 94.2456
lradius 23.808
lwrist -14.1945
lhand -14.8776 -27.3275
lfingers 7.12502
lthumb 11.2828 2.34902
rfemur 6.82433 -3.4121 10.7573
rtibia 4.75055
rfoot -13.4676 2.03365
rtoes 5.07147
lfemur 11.232 -0.853096 -21.7863
ltibia -0.661999
lfoot -12.2529 9.59036
ltoes -4.3087
870
root 48.2189 17.1742 -1.49871 1184.22 86.1237 1185.03
lowerback 3.52325 1.62124 -7.11825
upperback 1.20971 1.94183 -0.847596
thorax -0.930881 0.984873 3.02658
lowerneck -22.0108 0.905702 2.12513
upperneck 21.6091 0.837439 -0.749005
head 10.5965 0.507752 -0.484929
rclavicle -2.42269e-015 -8.54774e-015
rhumerus -34.0932 5.983 -89.4867
rradius 29.8685
rwrist 6.60926
rhand -9.13878 -31.2768
rfingers 7.12502
rthumb 16.8128 -60.5689
lclavicle -2.42269e-015 -8.54774e-015
lhumerus -29.853 -11.6784 94.1888
lradius 23.7649
lwrist -14.4311
lhand -14.9031 -27.3818
lfingers 7.12502
lthumb 11.2582 2.29613
rfemur 6.88559 -3.72411 10.5863
rtibia 4.70078
rfoot -13.3894 2.41683
rtoes 5.58706
lfemur 11.2838 -0.859695 -21.9146
ltibia -0.723686
lfoot -12.1731 9.62508
ltoes -4.55343
